<svg width="17" height="20" viewBox="0 0 17 20" fill="none" xmlns="http://www.w3.org/2000/svg">
<g id="Group 11">
<g id="Vector">
<path d="M1.6521 16.9071C1.6521 14.494 3.34942 12.4386 5.65614 12.0583L5.86392 12.024C7.71102 11.7195 9.59318 11.7195 11.4403 12.024L11.6481 12.0583C13.9548 12.4386 15.6521 14.494 15.6521 16.9071C15.6521 17.9501 14.8336 18.7957 13.824 18.7957H3.48023C2.47058 18.7957 1.6521 17.9501 1.6521 16.9071Z" stroke="#363853" stroke-width="1.5"/>
<path d="M12.7355 4.73315C12.7355 6.90778 10.9073 8.67065 8.65212 8.67065C6.39696 8.67065 4.56879 6.90778 4.56879 4.73315C4.56879 2.55853 6.39696 0.795654 8.65212 0.795654C10.9073 0.795654 12.7355 2.55853 12.7355 4.73315Z" stroke="#363853" stroke-width="1.5"/>
</g>
</g>
</svg>
