<svg width="21" height="21" viewBox="0 0 21 21" fill="none" xmlns="http://www.w3.org/2000/svg">
<g id="Group">
<path id="Shape" fill-rule="evenodd" clip-rule="evenodd" d="M13.3821 1.86009L18.9421 5.97009C20.0088 6.74537 20.6435 7.98145 20.6521 9.30009V16.7401C20.5921 19.1333 18.6055 21.026 16.2121 20.9701H5.0921C2.69875 21.026 0.712124 19.1333 0.6521 16.7401V9.31009C0.658203 7.98573 1.29754 6.74422 2.3721 5.97009L7.9221 1.86009C9.54846 0.672777 11.7557 0.672777 13.3821 1.86009ZM16.2121 19.4701C17.7772 19.5264 19.0925 18.3051 19.1521 16.7401V9.30009C19.1469 8.45544 18.7333 7.66551 18.0421 7.18009L12.4921 3.07009C11.396 2.26966 9.90819 2.26966 8.8121 3.07009L3.2621 7.17009C2.57027 7.66409 2.15743 8.46 2.1521 9.31009V16.7401C2.21712 18.3026 3.52908 19.5208 5.0921 19.4701H16.2121Z" fill="#363853"/>
<path id="Path" d="M15.1521 14.7201H6.1521C5.73789 14.7201 5.4021 15.0559 5.4021 15.4701C5.4021 15.8843 5.73789 16.2201 6.1521 16.2201H15.1521C15.5663 16.2201 15.9021 15.8843 15.9021 15.4701C15.9021 15.0559 15.5663 14.7201 15.1521 14.7201Z" fill="#363853"/>
</g>
</svg>
