<svg xmlns="http://www.w3.org/2000/svg" enable-background="new 0 0 64 64" viewBox="0 0 64 64" id="relationship"><circle cx="31.7" cy="12" r="11" fill="none" stroke="#363853" stroke-linecap="round" stroke-linejoin="round" stroke-miterlimit="10" stroke-width="1.5"></circle><circle cx="31.7" cy="8.1" r="2.8" fill="none" stroke="#363853" stroke-linecap="round" stroke-linejoin="round" stroke-miterlimit="10" stroke-width="1.5"></circle><path fill="none" stroke="#363853" stroke-linecap="round" stroke-linejoin="round" stroke-miterlimit="10" stroke-width="1.5" d="
		M24.7,17.7c1.7-2.1,4.2-3.4,7-3.4c2.9,0,5.4,1.3,7.1,3.4"></path><circle cx="48.6" cy="40.7" r="11" fill="none" stroke="#363853" stroke-linecap="round" stroke-linejoin="round" stroke-miterlimit="10" stroke-width="1.5"></circle><path fill="none" stroke="#363853" stroke-linecap="round" stroke-linejoin="round" stroke-miterlimit="10" stroke-width="1.5" d="
		M59.6,40.7c0,2.9-1.1,5.5-2.9,7.4c-2,2.2-4.9,3.6-8.2,3.6s-6.2-1.4-8.2-3.6c-1.8-2-2.9-4.6-2.9-7.4c0-6.1,4.9-11,11-11
		S59.6,34.7,59.6,40.7z"></path><circle cx="14.8" cy="40.7" r="11" fill="none" stroke="#363853" stroke-linecap="round" stroke-linejoin="round" stroke-miterlimit="10" stroke-width="1.5"></circle><line x1="50.5" x2="48.6" y1="15" y2="13.1" fill="none" stroke="#363853" stroke-dasharray="3" stroke-linecap="round" stroke-linejoin="round" stroke-miterlimit="10" stroke-width="1.5"></line><polyline fill="none" stroke="#363853" stroke-linecap="round" stroke-linejoin="round" stroke-miterlimit="10" stroke-width="1.5" points="51.7 10 58.3 16.6 60.9 14 61.7 23.1 52.7 22.2 55.2 19.7 52.3 16.8"></polyline><line x1="38.6" x2="41.4" y1="55" y2="55" fill="none" stroke="#363853" stroke-dasharray="3" stroke-linecap="round" stroke-linejoin="round" stroke-miterlimit="10" stroke-width="1.5"></line><polyline fill="none" stroke="#363853" stroke-linecap="round" stroke-linejoin="round" stroke-miterlimit="10" stroke-width="1.5" points="41.4 59.4 32 59.4 32 63 25 57.2 32 51.4 32 55 36.1 55"></polyline><line x1="7.4" x2="5.4" y1="22.7" y2="24.6" fill="none" stroke="#363853" stroke-dasharray="3" stroke-linecap="round" stroke-linejoin="round" stroke-miterlimit="10" stroke-width="1.5"></line><polyline fill="none" stroke="#363853" stroke-linecap="round" stroke-linejoin="round" stroke-miterlimit="10" stroke-width="1.5" points="2.3 21.5 8.9 14.9 6.4 12.4 15.4 11.5 14.6 20.6 12 18 9.1 20.9"></polyline><circle cx="48.6" cy="36.8" r="2.8" fill="none" stroke="#363853" stroke-linecap="round" stroke-linejoin="round" stroke-miterlimit="10" stroke-width="1.5"></circle><path fill="none" stroke="#363853" stroke-linecap="round" stroke-linejoin="round" stroke-miterlimit="10" stroke-width="1.5" d="
		M41.5,46.4c1.7-2.1,4.2-3.4,7-3.4c2.9,0,5.4,1.3,7.1,3.4"></path><circle cx="14.8" cy="36.8" r="2.8" fill="none" stroke="#363853" stroke-linecap="round" stroke-linejoin="round" stroke-miterlimit="10" stroke-width="1.5"></circle><path fill="none" stroke="#363853" stroke-linecap="round" stroke-linejoin="round" stroke-miterlimit="10" stroke-width="1.5" d="
		M7.8,46.4c1.7-2.1,4.2-3.4,7-3.4c2.9,0,5.4,1.3,7.1,3.4"></path></svg>