<svg width="27" height="26" viewBox="0 0 27 26" fill="none" xmlns="http://www.w3.org/2000/svg">
<g id="Group 13">
<path id="Vector" d="M2.04057 8.99116C2.90923 5.28793 5.80075 2.39641 9.50398 1.52775C12.1784 0.900416 14.9617 0.900417 17.6362 1.52775C21.3394 2.39641 24.2309 5.28793 25.0996 8.99116C25.7269 11.6656 25.7269 14.4489 25.0996 17.1233C24.2309 20.8266 21.3394 23.7181 17.6362 24.5868C14.9617 25.2141 12.1784 25.2141 9.50398 24.5868C5.80075 23.7181 2.90923 20.8266 2.04057 17.1233C1.41323 14.4489 1.41323 11.6656 2.04057 8.99116Z" stroke="#21B342" stroke-width="1.5"/>
<path id="Vector_2" d="M8.90332 13.0571L18.2366 13.0571M18.2366 13.0571L14.9033 9.72375M18.2366 13.0571L14.9033 16.3904" stroke="#21B342" stroke-width="1.5" stroke-linecap="round" stroke-linejoin="round"/>
</g>
</svg>
