<?xml version="1.0" ?><svg id="Layer_1_1_" style="enable-background:new 0 0 64 64;" version="1.1" viewBox="0 0 64 64" xml:space="preserve" xmlns="http://www.w3.org/2000/svg" xmlns:xlink="http://www.w3.org/1999/xlink"><g><path d="M23,30.5c0-1.93-1.57-3.5-3.5-3.5S16,28.57,16,30.5v3c0,0.827-0.673,1.5-1.5,1.5S13,34.327,13,33.5   v-3c0-0.827,0.673-1.5,1.5-1.5H15v-2h-0.5c-1.93,0-3.5,1.57-3.5,3.5V31H9v2h2v0.5c0,1.93,1.57,3.5,3.5,3.5s3.5-1.57,3.5-3.5v-3   c0-0.827,0.673-1.5,1.5-1.5s1.5,0.673,1.5,1.5v3c0,0.827-0.673,1.5-1.5,1.5H19v2h0.5c1.93,0,3.5-1.57,3.5-3.5V33h2v-2h-2V30.5z" style="fill:#04AB29;"/><path d="M17,20c-6.617,0-12,5.383-12,12s5.383,12,12,12s12-5.383,12-12S23.617,20,17,20z M17,42   c-5.514,0-10-4.486-10-10s4.486-10,10-10s10,4.486,10,10S22.514,42,17,42z" style="fill:#04AB29;"/><polygon points="7,50 5,50 5,59 14,59 14,57 7,57  " style="fill:#04AB29;"/><polygon points="27,57 20,57 20,59 29,59 29,50 27,50  " style="fill:#04AB29;"/><polygon points="7,7 14,7 14,5 5,5 5,14 7,14  " style="fill:#04AB29;"/><polygon points="20,7 27,7 27,14 29,14 29,5 20,5  " style="fill:#04AB29;"/><polygon points="42,7 42,14 44,14 44,5 35,5 35,7  " style="fill:#04AB29;"/><path d="M52.5,45H52v-2h-2v2h-0.5c-1.93,0-3.5,1.57-3.5,3.5s1.57,3.5,3.5,3.5h3c0.827,0,1.5,0.673,1.5,1.5   S53.327,55,52.5,55h-3c-0.827,0-1.5-0.673-1.5-1.5V53h-2v0.5c0,1.93,1.57,3.5,3.5,3.5H50v2h2v-2h0.5c1.93,0,3.5-1.57,3.5-3.5   S54.43,50,52.5,50h-3c-0.827,0-1.5-0.673-1.5-1.5s0.673-1.5,1.5-1.5h3c0.827,0,1.5,0.673,1.5,1.5V49h2v-0.5   C56,46.57,54.43,45,52.5,45z" style="fill:#04AB29;"/><path d="M63,40c0-6.617-5.383-12-12-12c-1.037,0-2.039,0.146-3,0.395V1H33h-1H1v62h31h1h15v-0.395   C48.961,62.854,49.963,63,51,63c6.617,0,12-5.383,12-12c0-1.992-0.495-3.869-1.358-5.524C62.517,43.778,63,41.904,63,40z M61,40   c0,1.194-0.234,2.375-0.654,3.492C58.145,40.757,54.776,39,51,39h-1.5c-0.827,0-1.5-0.673-1.5-1.5s0.673-1.5,1.5-1.5h3   c0.827,0,1.5,0.673,1.5,1.5V38h2v-0.5c0-1.93-1.57-3.5-3.5-3.5H52v-2h-2v2h-0.5c-1.93,0-3.5,1.57-3.5,3.5   c0,0.864,0.326,1.645,0.847,2.256c-2.053,0.761-3.844,2.059-5.193,3.736C41.234,42.375,41,41.194,41,40c0-5.514,4.486-10,10-10   S61,34.486,61,40z M33,41.949V30.5c0-0.827,0.673-1.5,1.5-1.5s1.5,0.673,1.5,1.5v3c0,0.827-0.673,1.5-1.5,1.5H34v2h0.5   c1.93,0,3.5-1.57,3.5-3.5V33h2v-2h-2v-0.5c0-1.93-1.57-3.5-3.5-3.5c-0.539,0-1.044,0.133-1.5,0.351v-5.3   c5.046,0.503,9,4.773,9,9.949c0,0.032-0.003,0.063-0.005,0.094c-1.664,1.893-2.741,4.308-2.948,6.969   C37.395,40.715,35.29,41.724,33,41.949z M46,3v26.105c-0.754,0.348-1.464,0.771-2.125,1.261c-0.756-5.519-5.27-9.85-10.875-10.316   V3H46z M31,61H3V3h28V61z M33,61V43.949c2.237-0.183,4.334-0.979,6.119-2.31c0.186,1.336,0.617,2.629,1.239,3.836   C39.495,47.131,39,49.008,39,51c0,2.187,0.598,4.232,1.624,6H35v2h7.081c0.681,0.758,1.449,1.435,2.3,2H33z M51,61   c-5.514,0-10-4.486-10-10s4.486-10,10-10s10,4.486,10,10S56.514,61,51,61z" style="fill:#04AB29;"/></g></svg>