<svg width="19" height="21" viewBox="0 0 19 21" fill="none" xmlns="http://www.w3.org/2000/svg">
<path id="log-out-Filled" d="M10.5466 19.5555C10.5466 20.1085 10.0986 20.5555 9.54663 20.5555H5.54663C2.78963 20.5555 0.546631 18.3125 0.546631 15.5555V5.55554C0.546631 2.79854 2.78963 0.555542 5.54663 0.555542H9.54663C10.0986 0.555542 10.5466 1.00254 10.5466 1.55554C10.5466 2.10854 10.0986 2.55554 9.54663 2.55554H5.54663C3.89263 2.55554 2.54663 3.90154 2.54663 5.55554V15.5555C2.54663 17.2095 3.89263 18.5555 5.54663 18.5555H9.54663C10.0996 18.5555 10.5466 19.0025 10.5466 19.5555ZM18.2536 9.84851L14.2536 5.84851C13.8626 5.45751 13.2306 5.45751 12.8396 5.84851C12.4486 6.23951 12.4486 6.87157 12.8396 7.26257L15.1326 9.55554H7.54663C6.99463 9.55554 6.54663 10.0025 6.54663 10.5555C6.54663 11.1085 6.99463 11.5555 7.54663 11.5555H15.1326L12.8396 13.8485C12.4486 14.2395 12.4486 14.8716 12.8396 15.2626C13.0346 15.4576 13.2906 15.5555 13.5466 15.5555C13.8026 15.5555 14.0586 15.4576 14.2536 15.2626L18.2536 11.2626C18.6446 10.8716 18.6446 10.2385 18.2536 9.84851Z" fill="#04AB29"/>
</svg>
